<mxfile host="app.diagrams.net" agent="Mozilla/5.0 (Windows NT 10.0; Win64; x64) AppleWebKit/537.36 (KHTML, like Gecko) Chrome/131.0.0.0 Safari/537.36 Edg/131.0.0.0" version="25.0.1">
  <diagram id="R2lEEEUBdFMjLlhIrx00" name="Page-1">
    <mxGraphModel dx="652" dy="799" grid="1" gridSize="10" guides="1" tooltips="1" connect="1" arrows="1" fold="1" page="1" pageScale="1" pageWidth="850" pageHeight="1100" math="0" shadow="0" extFonts="Permanent Marker^https://fonts.googleapis.com/css?family=Permanent+Marker">
      <root>
        <mxCell id="0" />
        <mxCell id="1" parent="0" />
        <mxCell id="NeTO1dt7-RtWeZAmDibY-6" value="&lt;span style=&quot;text-wrap-mode: nowrap;&quot;&gt;Malade&lt;/span&gt;" style="swimlane;whiteSpace=wrap;html=1;" vertex="1" parent="1">
          <mxGeometry x="90" y="100" width="160" height="220" as="geometry" />
        </mxCell>
        <mxCell id="NeTO1dt7-RtWeZAmDibY-3" value="N°patient" style="shape=partialRectangle;overflow=hidden;connectable=0;fillColor=none;top=0;left=0;bottom=0;right=0;align=left;spacingLeft=6;fontStyle=4" vertex="1" parent="NeTO1dt7-RtWeZAmDibY-6">
          <mxGeometry y="40" width="230" height="30" as="geometry">
            <mxRectangle width="230" height="30" as="alternateBounds" />
          </mxGeometry>
        </mxCell>
        <mxCell id="NeTO1dt7-RtWeZAmDibY-7" value="Adresse" style="shape=partialRectangle;overflow=hidden;connectable=0;fillColor=none;top=0;left=0;bottom=0;right=0;align=left;spacingLeft=6;" vertex="1" parent="NeTO1dt7-RtWeZAmDibY-6">
          <mxGeometry y="150" width="230" height="30" as="geometry">
            <mxRectangle width="230" height="30" as="alternateBounds" />
          </mxGeometry>
        </mxCell>
        <mxCell id="NeTO1dt7-RtWeZAmDibY-8" value="Nom" style="shape=partialRectangle;overflow=hidden;connectable=0;fillColor=none;top=0;left=0;bottom=0;right=0;align=left;spacingLeft=6;" vertex="1" parent="NeTO1dt7-RtWeZAmDibY-6">
          <mxGeometry y="70" width="230" height="30" as="geometry">
            <mxRectangle width="230" height="30" as="alternateBounds" />
          </mxGeometry>
        </mxCell>
        <mxCell id="NeTO1dt7-RtWeZAmDibY-13" value="Prénom" style="shape=partialRectangle;overflow=hidden;connectable=0;fillColor=none;top=0;left=0;bottom=0;right=0;align=left;spacingLeft=6;" vertex="1" parent="NeTO1dt7-RtWeZAmDibY-6">
          <mxGeometry y="110" width="230" height="30" as="geometry">
            <mxRectangle width="230" height="30" as="alternateBounds" />
          </mxGeometry>
        </mxCell>
        <mxCell id="NeTO1dt7-RtWeZAmDibY-14" value="Tel" style="shape=partialRectangle;overflow=hidden;connectable=0;fillColor=none;top=0;left=0;bottom=0;right=0;align=left;spacingLeft=6;" vertex="1" parent="NeTO1dt7-RtWeZAmDibY-6">
          <mxGeometry y="180" width="230" height="30" as="geometry">
            <mxRectangle width="230" height="30" as="alternateBounds" />
          </mxGeometry>
        </mxCell>
        <mxCell id="NeTO1dt7-RtWeZAmDibY-15" value="&lt;span style=&quot;text-wrap-mode: nowrap;&quot;&gt;Mutuelle&lt;/span&gt;" style="swimlane;whiteSpace=wrap;html=1;startSize=23;" vertex="1" parent="1">
          <mxGeometry x="540" y="100" width="160" height="110" as="geometry" />
        </mxCell>
        <mxCell id="NeTO1dt7-RtWeZAmDibY-16" value="N°mutuelle" style="shape=partialRectangle;overflow=hidden;connectable=0;fillColor=none;top=0;left=0;bottom=0;right=0;align=left;spacingLeft=6;" vertex="1" parent="NeTO1dt7-RtWeZAmDibY-15">
          <mxGeometry y="40" width="230" height="30" as="geometry">
            <mxRectangle width="230" height="30" as="alternateBounds" />
          </mxGeometry>
        </mxCell>
        <mxCell id="NeTO1dt7-RtWeZAmDibY-18" value="Adresse mutuelle" style="shape=partialRectangle;overflow=hidden;connectable=0;fillColor=none;top=0;left=0;bottom=0;right=0;align=left;spacingLeft=6;" vertex="1" parent="NeTO1dt7-RtWeZAmDibY-15">
          <mxGeometry y="70" width="230" height="30" as="geometry">
            <mxRectangle width="230" height="30" as="alternateBounds" />
          </mxGeometry>
        </mxCell>
        <mxCell id="NeTO1dt7-RtWeZAmDibY-21" value="&lt;span style=&quot;text-wrap-mode: nowrap;&quot;&gt;Maladie&lt;/span&gt;" style="swimlane;whiteSpace=wrap;html=1;" vertex="1" parent="1">
          <mxGeometry x="590" y="470" width="160" height="110" as="geometry" />
        </mxCell>
        <mxCell id="NeTO1dt7-RtWeZAmDibY-22" value="Code maladie" style="shape=partialRectangle;overflow=hidden;connectable=0;fillColor=none;top=0;left=0;bottom=0;right=0;align=left;spacingLeft=6;" vertex="1" parent="NeTO1dt7-RtWeZAmDibY-21">
          <mxGeometry y="40" width="230" height="30" as="geometry">
            <mxRectangle width="230" height="30" as="alternateBounds" />
          </mxGeometry>
        </mxCell>
        <mxCell id="NeTO1dt7-RtWeZAmDibY-24" value="Nom maladie" style="shape=partialRectangle;overflow=hidden;connectable=0;fillColor=none;top=0;left=0;bottom=0;right=0;align=left;spacingLeft=6;" vertex="1" parent="NeTO1dt7-RtWeZAmDibY-21">
          <mxGeometry x="1" y="70" width="230" height="30" as="geometry">
            <mxRectangle width="230" height="30" as="alternateBounds" />
          </mxGeometry>
        </mxCell>
        <mxCell id="NeTO1dt7-RtWeZAmDibY-27" value="&lt;span style=&quot;text-wrap-mode: nowrap;&quot;&gt;Médecin&lt;/span&gt;" style="swimlane;whiteSpace=wrap;html=1;" vertex="1" parent="1">
          <mxGeometry x="100" y="470" width="160" height="110" as="geometry" />
        </mxCell>
        <mxCell id="NeTO1dt7-RtWeZAmDibY-28" value="N°médecin" style="shape=partialRectangle;overflow=hidden;connectable=0;fillColor=none;top=0;left=0;bottom=0;right=0;align=left;spacingLeft=6;" vertex="1" parent="NeTO1dt7-RtWeZAmDibY-27">
          <mxGeometry y="40" width="140" height="30" as="geometry">
            <mxRectangle width="230" height="30" as="alternateBounds" />
          </mxGeometry>
        </mxCell>
        <mxCell id="NeTO1dt7-RtWeZAmDibY-30" value="Nom médecin" style="shape=partialRectangle;overflow=hidden;connectable=0;fillColor=none;top=0;left=0;bottom=0;right=0;align=left;spacingLeft=6;" vertex="1" parent="NeTO1dt7-RtWeZAmDibY-27">
          <mxGeometry y="70" width="230" height="30" as="geometry">
            <mxRectangle width="230" height="30" as="alternateBounds" />
          </mxGeometry>
        </mxCell>
        <mxCell id="NeTO1dt7-RtWeZAmDibY-33" value="&lt;div&gt;Hospitaliser&lt;/div&gt;&lt;div&gt;&lt;br&gt;&lt;/div&gt;&lt;div&gt;Date début&lt;/div&gt;&lt;div&gt;Date fin&lt;/div&gt;" style="ellipse;whiteSpace=wrap;html=1;" vertex="1" parent="1">
          <mxGeometry x="370" y="470" width="120" height="80" as="geometry" />
        </mxCell>
        <mxCell id="NeTO1dt7-RtWeZAmDibY-34" value="Disposer&lt;div&gt;&lt;br&gt;&lt;div&gt;&lt;div&gt;Date début&lt;/div&gt;&lt;div&gt;Date fin&lt;/div&gt;&lt;/div&gt;&lt;/div&gt;" style="ellipse;whiteSpace=wrap;html=1;" vertex="1" parent="1">
          <mxGeometry x="340" y="100" width="120" height="80" as="geometry" />
        </mxCell>
        <mxCell id="NeTO1dt7-RtWeZAmDibY-35" value="" style="endArrow=none;html=1;rounded=0;entryX=0;entryY=0.25;entryDx=0;entryDy=0;exitX=1;exitY=0.25;exitDx=0;exitDy=0;" edge="1" parent="1" source="NeTO1dt7-RtWeZAmDibY-27" target="NeTO1dt7-RtWeZAmDibY-21">
          <mxGeometry width="50" height="50" relative="1" as="geometry">
            <mxPoint x="300" y="490" as="sourcePoint" />
            <mxPoint x="350" y="440" as="targetPoint" />
          </mxGeometry>
        </mxCell>
        <mxCell id="NeTO1dt7-RtWeZAmDibY-36" value="" style="endArrow=none;html=1;rounded=0;" edge="1" parent="1">
          <mxGeometry width="50" height="50" relative="1" as="geometry">
            <mxPoint x="250" y="130" as="sourcePoint" />
            <mxPoint x="540" y="130" as="targetPoint" />
          </mxGeometry>
        </mxCell>
        <mxCell id="NeTO1dt7-RtWeZAmDibY-38" value="1,n" style="text;html=1;align=center;verticalAlign=middle;resizable=0;points=[];autosize=1;strokeColor=none;fillColor=none;" vertex="1" parent="1">
          <mxGeometry x="270" y="508" width="40" height="30" as="geometry" />
        </mxCell>
        <mxCell id="NeTO1dt7-RtWeZAmDibY-39" value="1,n" style="text;html=1;align=center;verticalAlign=middle;resizable=0;points=[];autosize=1;strokeColor=none;fillColor=none;" vertex="1" parent="1">
          <mxGeometry x="490" y="100" width="40" height="30" as="geometry" />
        </mxCell>
        <mxCell id="NeTO1dt7-RtWeZAmDibY-40" value="" style="endArrow=none;html=1;rounded=0;entryX=0.366;entryY=0.051;entryDx=0;entryDy=0;entryPerimeter=0;" edge="1" parent="1" target="NeTO1dt7-RtWeZAmDibY-33">
          <mxGeometry width="50" height="50" relative="1" as="geometry">
            <mxPoint x="250" y="260" as="sourcePoint" />
            <mxPoint x="410" y="460" as="targetPoint" />
          </mxGeometry>
        </mxCell>
        <mxCell id="NeTO1dt7-RtWeZAmDibY-41" value="0,n" style="text;html=1;align=center;verticalAlign=middle;resizable=0;points=[];autosize=1;strokeColor=none;fillColor=none;" vertex="1" parent="1">
          <mxGeometry x="540" y="508" width="40" height="30" as="geometry" />
        </mxCell>
        <mxCell id="NeTO1dt7-RtWeZAmDibY-42" value="0,1" style="text;html=1;align=center;verticalAlign=middle;resizable=0;points=[];autosize=1;strokeColor=none;fillColor=none;" vertex="1" parent="1">
          <mxGeometry x="250" y="100" width="40" height="30" as="geometry" />
        </mxCell>
        <mxCell id="NeTO1dt7-RtWeZAmDibY-43" value="" style="endArrow=block;html=1;rounded=0;endFill=1;" edge="1" parent="1">
          <mxGeometry width="50" height="50" relative="1" as="geometry">
            <mxPoint x="480" y="139.85" as="sourcePoint" />
            <mxPoint x="540" y="139.85" as="targetPoint" />
            <Array as="points">
              <mxPoint x="510" y="140" />
            </Array>
          </mxGeometry>
        </mxCell>
        <mxCell id="NeTO1dt7-RtWeZAmDibY-46" value="Malade(&lt;u&gt;N°patient&lt;/u&gt;,Nom, Prénom, Adresse,Tel, Num_mutuelle)" style="text;html=1;align=center;verticalAlign=middle;resizable=0;points=[];autosize=1;strokeColor=none;fillColor=none;" vertex="1" parent="1">
          <mxGeometry x="300" y="240" width="350" height="30" as="geometry" />
        </mxCell>
        <mxCell id="NeTO1dt7-RtWeZAmDibY-47" value="" style="endArrow=none;dashed=1;html=1;rounded=0;exitX=0.739;exitY=0.923;exitDx=0;exitDy=0;exitPerimeter=0;entryX=0.948;entryY=0.896;entryDx=0;entryDy=0;entryPerimeter=0;" edge="1" parent="1" source="NeTO1dt7-RtWeZAmDibY-46" target="NeTO1dt7-RtWeZAmDibY-46">
          <mxGeometry width="50" height="50" relative="1" as="geometry">
            <mxPoint x="490" y="330" as="sourcePoint" />
            <mxPoint x="536" y="290" as="targetPoint" />
          </mxGeometry>
        </mxCell>
        <mxCell id="NeTO1dt7-RtWeZAmDibY-48" value="Mutuelle(&lt;u&gt;Num_mutuelle&lt;/u&gt;, Adresse)" style="text;html=1;align=center;verticalAlign=middle;resizable=0;points=[];autosize=1;strokeColor=none;fillColor=none;" vertex="1" parent="1">
          <mxGeometry x="310" y="270" width="200" height="30" as="geometry" />
        </mxCell>
        <mxCell id="NeTO1dt7-RtWeZAmDibY-49" value="Medecin(&lt;u&gt;Num_medecin&lt;/u&gt;, Nom)" style="text;html=1;align=center;verticalAlign=middle;resizable=0;points=[];autosize=1;strokeColor=none;fillColor=none;" vertex="1" parent="1">
          <mxGeometry x="330" y="300" width="190" height="30" as="geometry" />
        </mxCell>
        <mxCell id="NeTO1dt7-RtWeZAmDibY-50" value="Maladie(&lt;u&gt;Code_maladie&lt;/u&gt;, Nom)" style="text;html=1;align=center;verticalAlign=middle;resizable=0;points=[];autosize=1;strokeColor=none;fillColor=none;" vertex="1" parent="1">
          <mxGeometry x="345" y="330" width="180" height="30" as="geometry" />
        </mxCell>
        <mxCell id="NeTO1dt7-RtWeZAmDibY-51" value="Malade_Médecin_Maladie(&lt;u&gt;Num_patient, Num_médecin, code_maladie&lt;/u&gt;, date_début, date_fin)" style="text;html=1;align=center;verticalAlign=middle;resizable=0;points=[];autosize=1;strokeColor=none;fillColor=none;" vertex="1" parent="1">
          <mxGeometry x="360" y="360" width="520" height="30" as="geometry" />
        </mxCell>
      </root>
    </mxGraphModel>
  </diagram>
</mxfile>
